<?xml version="1.0" standalone="no"?><!DOCTYPE svg PUBLIC "-//W3C//DTD SVG 1.1//EN" "http://www.w3.org/Graphics/SVG/1.1/DTD/svg11.dtd"><svg t="1668840266920" class="icon" viewBox="0 0 1024 1024" version="1.1" xmlns="http://www.w3.org/2000/svg" p-id="1214" xmlns:xlink="http://www.w3.org/1999/xlink" width="200" height="200"><path d="M92.15 623.87H928v36.22H92.15z" fill="#073443" p-id="1215"></path><path d="M443.02 218.72h134.09v39.09H443.02z" fill="#FBB040" p-id="1216"></path><path d="M909.9 506.41c0 64.87-52.58 117.45-117.45 117.45H227.71c-64.87 0-117.45-52.58-117.45-117.45V369.39c0-64.87 52.58-117.45 117.45-117.45h564.74c64.87 0 117.45 52.58 117.45 117.45v137.02z" fill="#F7941E" p-id="1217"></path><path d="M792.45 263.68H227.71c-64.86 0-117.45 52.58-117.45 117.45v24.47c0-64.87 52.59-117.45 117.45-117.45h564.74c64.86 0 117.45 52.58 117.45 117.45v-24.47c0-64.86-52.59-117.45-117.45-117.45z" fill="#FBB040" p-id="1218"></path><path d="M241.41 251.02h17.62v343.49h-17.62zM366.7 251.02h17.62v343.49H366.7z" fill="#FBB040" p-id="1219"></path><path d="M250.22 268.58H375.5v11.75H250.22zM250.22 317.65H375.5v11.75H250.22zM250.22 366.7H375.5v11.75H250.22zM250.22 415.76h125.27v11.75H250.22zM250.22 464.81H375.5v11.75H250.22zM250.22 513.88H375.5v11.75H250.22zM250.22 562.94H375.5v11.75H250.22z" fill="#FBB040" p-id="1220"></path><path d="M269.8 634.64c-43.78 0-79.28 35.49-79.28 79.28s35.5 79.28 79.28 79.28 79.28-35.49 79.28-79.28-35.5-79.28-79.28-79.28z m0 133.6c-30.01 0-54.32-24.32-54.32-54.32s24.32-54.32 54.32-54.32 54.32 24.32 54.32 54.32-24.31 54.32-54.32 54.32z" fill="#073443" p-id="1221"></path><path d="M349.08 708.04h-56.6a3.522 3.522 0 0 1-2.49-6.01l40.02-40.02-8.3-8.3-40.02 40.02a3.522 3.522 0 1 1-6.01-2.49v-56.6h-11.75v56.6a3.522 3.522 0 0 1-6.01 2.49l-40.02-40.02-8.3 8.3 40.02 40.02a3.522 3.522 0 1 1-2.49 6.01h-56.6v11.75h56.6a3.522 3.522 0 0 1 2.49 6.01l-40.02 40.02 8.3 8.3 40.02-40.02a3.522 3.522 0 1 1 6.01 2.49v56.6h11.75v-56.6a3.522 3.522 0 0 1 6.01-2.49l40.02 40.02 8.3-8.3-40.02-40.02a3.522 3.522 0 1 1 2.49-6.01h56.6v-11.75zM750.86 634.64c-43.78 0-79.28 35.49-79.28 79.28s35.5 79.28 79.28 79.28 79.28-35.49 79.28-79.28c-0.01-43.79-35.5-79.28-79.28-79.28z m0 133.6c-30 0-54.32-24.32-54.32-54.32s24.32-54.32 54.32-54.32c30.01 0 54.32 24.32 54.32 54.32s-24.32 54.32-54.32 54.32z" fill="#073443" p-id="1222"></path><path d="M830.13 708.04h-56.6a3.522 3.522 0 0 1-2.49-6.01l40.02-40.02-8.3-8.3-40.02 40.02a3.522 3.522 0 1 1-6.01-2.49v-56.6h-11.75v56.6a3.522 3.522 0 0 1-6.01 2.49l-40.02-40.02-8.3 8.3 40.02 40.02a3.522 3.522 0 1 1-2.49 6.01h-56.6v11.75h56.6a3.522 3.522 0 0 1 2.49 6.01l-40.02 40.02 8.3 8.3 40.02-40.02a3.522 3.522 0 1 1 6.01 2.49v56.6h11.75v-56.6a3.522 3.522 0 0 1 6.01-2.49l40.02 40.02 8.3-8.3-40.02-40.02a3.522 3.522 0 1 1 2.49-6.01h56.6v-11.75z" fill="#073443" p-id="1223"></path><path d="M755.42 719.54h-490.7l-47.88-69.25H803.3zM811.05 391.25c0 19.87-16.1 35.97-35.97 35.97-19.87 0-35.97-16.1-35.97-35.97 0-19.87 35.97-67.95 35.97-67.95s35.97 48.09 35.97 67.95z" fill="#073443" p-id="1224"></path></svg>