<?xml version="1.0" standalone="no"?><!DOCTYPE svg PUBLIC "-//W3C//DTD SVG 1.1//EN" "http://www.w3.org/Graphics/SVG/1.1/DTD/svg11.dtd"><svg t="1668856468755" class="icon" viewBox="0 0 1024 1024" version="1.1" xmlns="http://www.w3.org/2000/svg" p-id="3700" xmlns:xlink="http://www.w3.org/1999/xlink" width="200" height="200"><path d="M762.105019 110.933333s-124.586667 52.906667-124.586666 218.453334c0 0-124.586667-18.773333-124.586667-329.386667 0 0-488.106667 209.92-266.24 641.706667-83.626667-11.946667-158.72-114.346667-199.68-165.546667 0 419.84 228.693333 547.84 464.213333 547.84 331.093333 0 464.213333-218.453333 464.213334-380.586667 0-238.933333-213.333333-269.653333-213.333334-532.48z m-264.533333 648.533334c-8.533333 0-15.36 0-22.186667-1.706667l-11.946666-35.84c8.533333 0 17.066667 1.706667 27.306666 1.706667 13.653333 0 22.186667-1.706667 23.893334-3.413334 3.413333-3.413333 3.413333-8.533333 3.413333-17.066666 0-30.72-15.36-59.733333-47.786667-87.04 11.946667-27.306667 23.893333-59.733333 35.84-95.573334H456.611686v329.386667h-37.546667V481.28h129.706667v37.546667c-6.826667 27.306667-17.066667 56.32-30.72 88.746666 27.306667 30.72 40.96 63.146667 40.96 93.866667 0 39.253333-20.48 58.026667-61.44 58.026667zM780.878353 568.32h-131.413334l-1.706666 56.32H763.811686c0 35.84 0 75.093333-3.413333 121.173333-3.413333 46.08-6.826667 71.68-11.946667 80.213334-5.12 6.826667-10.24 13.653333-17.066667 17.066666-6.826667 5.12-22.186667 6.826667-49.493333 6.826667h-25.6l-15.36-39.253333h39.253333c15.36 0 25.6 0 29.013334-1.706667 3.413333-1.706667 5.12-3.413333 6.826666-6.826667 1.706667-3.413333 3.413333-18.773333 5.12-47.786666 1.706667-29.013333 3.413333-59.733333 3.413334-92.16h-78.506667c-6.826667 80.213333-39.253333 143.36-97.28 191.146666l-27.306667-25.6c20.48-17.066667 37.546667-37.546667 52.906667-61.44 15.36-23.893333 25.6-49.493333 30.72-76.8 5.12-27.306667 6.826667-68.266667 5.12-119.466666h-54.613333V530.773333h92.16c-5.12-13.653333-13.653333-29.013333-25.6-46.08l37.546666-13.653333c13.653333 22.186667 23.893333 42.666667 30.72 59.733333H780.878353v37.546667z" fill="#ffffff" p-id="3701"></path></svg>