<?xml version="1.0" standalone="no"?><!DOCTYPE svg PUBLIC "-//W3C//DTD SVG 1.1//EN" "http://www.w3.org/Graphics/SVG/1.1/DTD/svg11.dtd"><svg t="1668856764773" class="icon" viewBox="0 0 1024 1024" version="1.1" xmlns="http://www.w3.org/2000/svg" p-id="2865" xmlns:xlink="http://www.w3.org/1999/xlink" width="200" height="200"><path d="M477.792 792.328s-160 12.664-186.664-125.336c-26.672-138-64-157.328-64-157.328s56.664-3.336 94.664 44c0 0 4-87.336-19.336-128 0 0 32 2.664 75.336 46 0 0 11.336-71.336-20.664-152 0 0 34.664-10 90.664 58 0 0-4.664-98 48.664-179.336 0 0 7.336 74 30.664 96.664 23.328 22.672 28.664 138 28.664 138s48.664-47.328 52.664-86.664c0 0 33.336 132.304 23.336 149.152 0 0 50-18.488 55.336-71.816 0 0 39.328 50.664 8 134 0 0 68.664-28 84.664-14 0 0-37.336 37.32-48.664 86.656-11.336 49.344-22.672 137.944-195.336 162.304 0 0 80.664-48.304 84-107.64 0 0-36 0.68-44 6 0 0 41.336-58.664 36.664-101.32 0 0-38 13.32-41.328 26.656 0 0-14.672-12-10.672-85.336 0 0-30 20.68-37.328 44.68 0 0-15.336-68.672-26.664-76 0 0-10 59.328-15.328 66 0 0-29.336-45.344-40.672-46.672 0 0 8.672 106.672-1.328 115.336 0 0-38-29.336-52-37.336 0 0 18.664 50.68 4 90.68 0 0-14 1.32-24-9.344 0 0 0.664 52 110.664 114M332.456 811h335.336v22H332.456z" fill="#ffffff" p-id="2866"></path></svg>