<?xml version="1.0" standalone="no"?><!DOCTYPE svg PUBLIC "-//W3C//DTD SVG 1.1//EN" "http://www.w3.org/Graphics/SVG/1.1/DTD/svg11.dtd"><svg t="1668839999953" class="icon" viewBox="0 0 1024 1024" version="1.1" xmlns="http://www.w3.org/2000/svg" p-id="2183" xmlns:xlink="http://www.w3.org/1999/xlink" width="200" height="200"><path d="M382.61 252.15l-242.78 222v336.83l484.26-0.08V478.49z" fill="#FB6D51" p-id="2184"></path><path d="M326.74 550.13h111.75v223.55H326.74z" fill="#434A54" p-id="2185"></path><path d="M83.96 531.52c-4.77 0-9.52-1.83-13.18-5.48-7.26-7.28-7.26-19.07 0.03-26.33l298.63-260.74c7.28-7.28 19.1-7.26 26.35 0.03 7.26 7.26 7.26 19.07-0.03 26.33L97.13 526.07c-3.65 3.63-8.4 5.45-13.17 5.45z" fill="#646C77" p-id="2186"></path><path d="M679.97 531.52c-4.77 0-9.55-1.83-13.18-5.48L369.41 265.3c-7.26-7.29-7.23-19.07 0.03-26.33 7.28-7.28 19.1-7.26 26.35 0.03l297.35 260.74c7.26 7.28 7.26 19.07-0.03 26.33-3.62 3.63-8.4 5.45-13.14 5.45z" fill="#646C77" p-id="2187"></path><path d="M642.7 810.98H121.22c-10.29 0-18.63-8.32-18.63-18.61 0-10.31 8.35-18.63 18.63-18.63H642.7c10.29 0 18.63 8.32 18.63 18.63 0 10.29-8.35 18.61-18.63 18.61z" fill="#E8563F" p-id="2188"></path><path d="M883.6 460.37c-102.42-114.72-64.44-245.38-64.44-245.38-156.03 46.93-249.22 165.69-232.8 317.65 0 0-26.65-11.57-68.72-36.04-32.93 235.8 92.98 314.37 242.32 314.37 149.31 0.01 291.29-162.81 123.64-350.6z" fill="#FECD57" p-id="2189"></path><path d="M549.12 532.64a368.29 368.29 0 0 1-1.5-19.29 976.797 976.797 0 0 1-29.98-16.75c-0.9 6.57-1.69 13.01-2.37 19.34 21.35 11.27 33.85 16.7 33.85 16.7zM883.6 460.37c-102.42-114.72-64.44-245.38-64.44-245.38-13.97 4.2-27.42 8.98-40.35 14.3-6.44 36.97-14.57 139.14 67.52 231.08 161.87 181.29 35.14 339.31-108.17 350.03 7.2 0.38 14.46 0.57 21.8 0.57 149.31 0.01 291.29-162.81 123.64-350.6z" fill="#F5BA45" p-id="2190"></path></svg>