<?xml version="1.0" standalone="no"?><!DOCTYPE svg PUBLIC "-//W3C//DTD SVG 1.1//EN" "http://www.w3.org/Graphics/SVG/1.1/DTD/svg11.dtd"><svg t="1668840626652" class="icon" viewBox="0 0 1024 1024" version="1.1" xmlns="http://www.w3.org/2000/svg" p-id="19109" xmlns:xlink="http://www.w3.org/1999/xlink" width="200" height="200"><path d="M944 984H80a8 8 0 0 1-8-8v-96a8 8 0 0 1 8-8h864a8 8 0 0 1 8 8v96a8 8 0 0 1-8 8z m-856-16h848v-80h-848v80z" fill="#263238" p-id="19110"></path><path d="M168 560h112v288h-112z" fill="#4DB6AC" p-id="19111"></path><path d="M360 680h112V848h-112z" fill="#FFD740" p-id="19112"></path><path d="M552 520h112V848h-112z" fill="#40C4FF" p-id="19113"></path><path d="M744 440h112V848h-112z" fill="#FF5252" p-id="19114"></path><path d="M280 856a8 8 0 0 1-8-8V568h-96V848a8 8 0 0 1-16 0V560a8 8 0 0 1 8-8h112a8 8 0 0 1 8 8v288a8 8 0 0 1-8 8zM472 856a8 8 0 0 1-8-8V688h-96v160a8 8 0 0 1-16 0V680a8 8 0 0 1 8-8h112a8 8 0 0 1 8 8V848a8 8 0 0 1-8 8zM664 856a8 8 0 0 1-8-8V528h-96v320a8 8 0 0 1-16 0V520a8 8 0 0 1 8-8h112a8 8 0 0 1 8 8V848a8 8 0 0 1-8 8zM856 856a8 8 0 0 1-8-8V448h-96v400a8 8 0 0 1-16 0V440a8 8 0 0 1 8-8h112a8 8 0 0 1 8 8V848a8 8 0 0 1-8 8zM416 520a8 8 0 0 1-5.12-1.856l-187.408-156.176-139.024 92.688a8 8 0 0 1-8.864-13.312l144-96a8 8 0 0 1 9.568 0.512L416 501.584l186.88-155.728 193.088-112.768a8 8 0 0 1 8.464 0.256l120 80a8 8 0 0 1-8.864 13.312l-115.84-77.232-187.68 109.488-190.928 159.232a8 8 0 0 1-5.12 1.856z" fill="#263238" p-id="19115"></path><path d="M608 350.48m-40 0a40 40 0 1 0 80 0 40 40 0 1 0-80 0Z" fill="#FFFFFF" p-id="19116"></path><path d="M608 398.48c-26.464 0-48-21.536-48-48s21.536-48 48-48 48 21.536 48 48-21.536 48-48 48z m0-80c-17.648 0-32 14.352-32 32s14.352 32 32 32 32-14.352 32-32-14.352-32-32-32z" fill="#263238" p-id="19117"></path><path d="M416 512m-40 0a40 40 0 1 0 80 0 40 40 0 1 0-80 0Z" fill="#FFFFFF" p-id="19118"></path><path d="M416 560c-26.464 0-48-21.536-48-48s21.536-48 48-48 48 21.536 48 48-21.536 48-48 48z m0-80c-17.648 0-32 14.352-32 32s14.352 32 32 32 32-14.352 32-32-14.352-32-32-32z" fill="#263238" p-id="19119"></path><path d="M224 352m-40 0a40 40 0 1 0 80 0 40 40 0 1 0-80 0Z" fill="#FFFFFF" p-id="19120"></path><path d="M224 400c-26.464 0-48-21.536-48-48s21.536-48 48-48 48 21.536 48 48-21.536 48-48 48z m0-80c-17.648 0-32 14.352-32 32s14.352 32 32 32 32-14.352 32-32-14.352-32-32-32z" fill="#263238" p-id="19121"></path><path d="M800 240m-40 0a40 40 0 1 0 80 0 40 40 0 1 0-80 0Z" fill="#FFFFFF" p-id="19122"></path><path d="M800 288c-26.464 0-48-21.536-48-48s21.536-48 48-48 48 21.536 48 48-21.536 48-48 48z m0-80c-17.648 0-32 14.352-32 32s14.352 32 32 32 32-14.352 32-32-14.352-32-32-32z" fill="#263238" p-id="19123"></path><path d="M384 88h-64a8 8 0 0 1 0-16h64a8 8 0 0 1 0 16z" fill="#263238" p-id="19124"></path><path d="M352 120a8 8 0 0 1-8-8V48a8 8 0 0 1 16 0v64a8 8 0 0 1-8 8z" fill="#263238" p-id="19125"></path><path d="M512 208h-64a8 8 0 0 1 0-16h64a8 8 0 0 1 0 16z" fill="#263238" p-id="19126"></path><path d="M480 240a8 8 0 0 1-8-8v-64a8 8 0 0 1 16 0v64a8 8 0 0 1-8 8z" fill="#263238" p-id="19127"></path></svg>